<svg id="Layer_1" data-name="Layer 1" xmlns="http://www.w3.org/2000/svg" viewBox="0 0 204.1 35.2"><defs><style>.cls-1{fill:#fff;}</style></defs><path class="cls-1" d="M0,4V2.5H5v2H4.6ZM5,24.7v2H0V25.2l4.7-.5Zm-1.6-11c0-3.7,0-7.4-.1-11.1H6.8c-.2,3.5-.2,7.3-.2,11.1V15c0,4.1,0,7.9.1,11.6H3.3c.1-3.6.1-7.4.1-11.2ZM15,2.5l1.6,1.8H5V2.5H17.9l.3,6.4h-2ZM13.1,15.1H5V13.5h8.1Zm5.7,5.1-.2,6.4H5V24.8H17.3l-1.6,1.8,1.1-6.4ZM12,13.8l.5-3.8h1.6v8.5H12.5l-.5-4Z"/><path class="cls-1" d="M26.5,0l.5.3-.1,5.1V19.1c0,2.5,0,5,.1,7.6H23.9c.1-2.5.1-5,.1-7.6V3.2l-3-.4V1.6Zm3.4,25.4v1.3H21V25.4l4.1-.7h.7Z"/><path class="cls-1" d="M47.3,16a13.55,13.55,0,0,1-.2,2H33.8V16.5h8.6c1.7,0,2.1-.8,2.1-1.8a3.93,3.93,0,0,0-4-3.9c-2.3,0-5,1.9-5,7.1,0,4.6,2.3,7,5.9,7a6.25,6.25,0,0,0,5-2.6l.8.6a7.52,7.52,0,0,1-6.9,4.2c-4.8,0-8-3.4-8-8.8S36,9.1,40.5,9.1A6.48,6.48,0,0,1,47.3,16Z"/><path class="cls-1" d="M53.2,26.6c.1-1.6.1-5.3.1-7.6V17.3c0-2,0-3.1-.1-4.5l-2.9-.3V11.2L55.2,9l.5.4.4,4.2V19c0,2.2,0,5.9.1,7.6Zm5.7-1.2v1.3H50.6V25.4l4-.7h.7Zm8.3-9.6v3.3c0,2.3,0,5.9.1,7.6H64.2c.1-1.6.1-5.2.1-7.6v-3c0-3.4-.9-4.4-3-4.4-1.8,0-3.3.7-5.3,2.5h-.8V12.6H57l-1.6.6a9.67,9.67,0,0,1,7.1-4C65.7,9.1,67.2,11,67.2,15.8Zm-1,8.9,3.6.7v1.3H61.5V25.4l3.9-.7Z"/><path class="cls-1" d="M78.4,17.2A51.18,51.18,0,0,1,84,15.7V17a26.43,26.43,0,0,0-4.8,1.4c-3.2,1.3-3.6,2.6-3.6,3.7,0,1.9,1.3,2.7,2.9,2.7,1.3,0,2-.5,4.2-2.1l.7-.5.5.8-1.1,1c-2.1,2.2-3.4,3.2-5.6,3.2-2.6,0-4.8-1.5-4.8-4.5C72.5,20.6,73.6,19,78.4,17.2Zm4.2,6.1V15.1c0-3.5-1-4.4-3.4-4.4a8.66,8.66,0,0,0-3.2.6l1.4-1.1-.9,3.1c-.3,1-.9,1.6-1.8,1.6a1.46,1.46,0,0,1-1.6-1.3v-.1c.7-2.7,3.4-4.4,7-4.4s5.5,1.7,5.5,6.2V23c0,1.6.5,2.2,1.3,2.2a1.6,1.6,0,0,0,1.4-.8l.7.8A3.34,3.34,0,0,1,85.9,27c-2,0-3.3-1.4-3.3-3.7Z"/><path class="cls-1" d="M99,25.2l3.8-.5h.7l4.1.5v1.4H99Zm2.3-21.6,2.2.9L99.3,4V2.5h5.4l14.9,20.6v3.8h-1.1Zm.8-1.1,1.8,1.4V26.6h-1.8Zm11.9,0h8.6V4l-3.6.5h-.7L114,4Zm3.8,0h1.8V26.9l-1.8-1.8Z"/><path class="cls-1" d="M140.2,16a13.55,13.55,0,0,1-.2,2H126.7V16.5h8.6c1.7,0,2.1-.8,2.1-1.8a3.93,3.93,0,0,0-4-3.9c-2.3,0-5,1.9-5,7.1,0,4.6,2.3,7,5.9,7a6.25,6.25,0,0,0,5-2.6l.8.6a7.52,7.52,0,0,1-6.9,4.2c-4.8,0-8-3.4-8-8.8s3.8-9.2,8.2-9.2C137.3,9.1,140.2,11.6,140.2,16Z"/><path class="cls-1" d="M157,29.9c0-1.6-1-2.8-3.6-2.8h-4.2a10.87,10.87,0,0,1-1.8-.1v-.1c-1.8-.4-2.8-1.3-2.8-2.8,0-1.3.8-2.6,3.3-4.8l.8.5a4,4,0,0,0-1.5,3c0,1.1.4,1.6,2.1,1.6h4.8c3.9,0,5.7,1.7,5.7,4.6,0,3.1-3,6.2-8.8,6.2-5.2,0-7.5-1.8-7.5-4.4,0-1.8,1.1-3.1,4.8-4.6l.2.2c-1.4,1.4-2,2.5-2,3.9,0,2.4,1.8,3.3,4.6,3.3C154.9,33.7,157,32,157,29.9ZM150.7,9.1c3.7,0,6.4,2,6.4,5.9s-2.8,5.9-6.5,5.9-6.4-1.9-6.4-5.9S147,9.1,150.7,9.1ZM147,15c0,2.6,1.3,4.4,3.5,4.4s3.7-1.9,3.7-4.6-1.3-4.4-3.6-4.4S147,12.4,147,15Zm12.2-5.9.5.4v2.2h-5.3v-1Z"/><path class="cls-1" d="M166.6,0l.5.3L167,5.4V19.1c0,2.5,0,5,.1,7.6H164c.1-2.5.1-5,.1-7.6V3.2l-3-.4V1.6ZM170,25.4v1.3h-8.9V25.4l4.1-.7h.7Z"/><path class="cls-1" d="M187.4,16a13.55,13.55,0,0,1-.2,2H173.9V16.5h8.6c1.7,0,2.1-.8,2.1-1.8a3.93,3.93,0,0,0-4-3.9c-2.3,0-5,1.9-5,7.1,0,4.6,2.3,7,5.9,7a6.25,6.25,0,0,0,5-2.6l.8.6a7.52,7.52,0,0,1-6.9,4.2c-4.8,0-8-3.4-8-8.8s3.7-9.2,8.2-9.2C184.5,9.1,187.4,11.6,187.4,16Z"/><path class="cls-1" d="M193.5,19.1V17.4c0-2,0-3.1-.1-4.5l-2.9-.3V11.3l4.9-2.2.5.4.4,4.5v5.1c0,2.2,0,5.9.1,7.6h-3.1C193.4,25,193.5,21.3,193.5,19.1Zm-2.7,6.3,4-.7h.7l4,.7v1.3h-8.6Zm4.1-11.2H197l-.9.3c1.1-3.4,3.3-5.4,5.5-5.4a3,3,0,0,1,2.5,1.2c0,1.7-.6,2.6-2.1,2.6a2.72,2.72,0,0,1-2.1-.9l-1-.8,1.8-.4c-2.2,1.1-3.5,2.9-4.4,5.7h-1.4Z"/></svg>