<svg id="Layer_1" data-name="Layer 1" xmlns="http://www.w3.org/2000/svg" viewBox="0 0 204.08 35.28"><path d="M165.66,214.27v-1.44h5v2h-.36Zm5,20.69v2h-5V235.5l4.68-.54Zm-1.62-11c0-3.7,0-7.45-.11-11.15h3.46c-.11,3.63-.11,7.38-.11,11.15v1.37c0,4.14,0,7.89.11,11.59H169c.11-3.63.11-7.38.11-11.16Zm11.59-11.15,1.62,1.8H170.7v-1.8h12.85l.26,6.4h-2Zm-1.83,12.63H170.7V223.8h8.14Zm5.68,5.08-.25,6.4H170.7v-1.8H183l-1.62,1.8,1.12-6.4Zm-6.83-6.38.54-3.81h1.62v8.53h-1.62l-.54-4Z" transform="translate(-165.66 -210.31)"/><path d="M192.19,210.31l.51.28-.15,5.12v13.67q0,3.78.11,7.56h-3.09q.1-3.78.1-7.56V213.55l-3-.36v-1.26Zm3.35,25.37v1.26h-8.85v-1.26l4.06-.72h.72Z" transform="translate(-165.66 -210.31)"/><path d="M213,226.29a7,7,0,0,1-.25,2H199.43v-1.51H208c1.73,0,2.12-.83,2.12-1.83a4,4,0,0,0-4-3.93c-2.31,0-5,1.95-5,7.09,0,4.58,2.3,7,5.9,7a6.22,6.22,0,0,0,5-2.55l.83.65a7.32,7.32,0,0,1-6.88,4.17c-4.82,0-8-3.35-8-8.82s3.74-9.18,8.21-9.18C210,219.41,213,221.93,213,226.29Z" transform="translate(-165.66 -210.31)"/><path d="M218.91,236.94c.07-1.62.1-5.32.1-7.56v-1.69c0-2,0-3.09-.1-4.53l-2.88-.33v-1.26l4.89-2.16.54.36.43,4.18v5.43c0,2.24,0,5.94.11,7.56Zm5.61-1.26v1.26h-8.28v-1.26l4-.72h.72Zm8.32-9.61v3.31c0,2.31,0,5.94.1,7.56h-3.09c.07-1.62.11-5.25.11-7.56v-3c0-3.35-.87-4.43-3-4.43-1.8,0-3.27.72-5.32,2.49h-.76V222.8h1.84l-1.55.64c1.69-2.26,4.57-4,7.13-4C231.36,219.41,232.84,221.32,232.84,226.07Zm-1,8.89,3.6.72v1.26h-8.27v-1.26l3.95-.72Z" transform="translate(-165.66 -210.31)"/><path d="M244.11,227.51a38.54,38.54,0,0,1,5.57-1.51v1.3a31.18,31.18,0,0,0-4.82,1.44c-3.24,1.26-3.6,2.62-3.6,3.67,0,1.91,1.26,2.66,2.92,2.66,1.26,0,2-.47,4.24-2.09l.73-.54.5.76-1.05,1c-2.15,2.16-3.38,3.17-5.57,3.17-2.63,0-4.83-1.51-4.83-4.5C238.2,230.9,239.28,229.28,244.11,227.51Zm4.14,6.12v-8.21c0-3.52-1-4.39-3.39-4.39a8.37,8.37,0,0,0-3.24.65l1.44-1.12-.93,3.1c-.33,1-.87,1.62-1.84,1.62a1.47,1.47,0,0,1-1.62-1.44c.68-2.74,3.35-4.43,7-4.43s5.5,1.69,5.5,6.23v7.63c0,1.62.51,2.2,1.34,2.2a1.8,1.8,0,0,0,1.4-.79l.72.79a3.37,3.37,0,0,1-3.06,1.83C249.54,237.3,248.25,235.86,248.25,233.63Z" transform="translate(-165.66 -210.31)"/><path d="M264.7,235.5l3.78-.54h.72l4.14.54v1.44H264.7ZM267,213.94l2.24.87-4.32-.54v-1.44h5.4l14.93,20.55v3.81h-1.15Zm.8-1.11,1.8,1.44v22.67h-1.8Zm11.88,0h8.64v1.44l-3.6.54H284l-4.32-.54Zm3.78,0h1.79v24.36l-1.79-1.79Z" transform="translate(-165.66 -210.31)"/><path d="M305.88,226.29a7.32,7.32,0,0,1-.25,2H292.35v-1.51h8.56c1.73,0,2.13-.83,2.13-1.83a4,4,0,0,0-4-3.93c-2.3,0-5,1.95-5,7.09,0,4.58,2.31,7,5.91,7a6.25,6.25,0,0,0,5-2.55l.82.65a7.31,7.31,0,0,1-6.87,4.17c-4.83,0-8-3.35-8-8.82s3.75-9.18,8.21-9.18C302.93,219.41,305.88,221.93,305.88,226.29Z" transform="translate(-165.66 -210.31)"/><path d="M322.66,240.25c0-1.62-1-2.84-3.64-2.84h-4.25a12.89,12.89,0,0,1-1.8-.11v-.11c-1.83-.39-2.77-1.33-2.77-2.84,0-1.26.83-2.63,3.28-4.75l.79.54c-1.08,1.15-1.55,1.94-1.55,3s.4,1.62,2.09,1.62h4.75c3.85,0,5.69,1.7,5.69,4.61,0,3.1-3,6.19-8.79,6.19-5.18,0-7.45-1.8-7.45-4.39,0-1.76,1.12-3.1,4.75-4.64l.18.21c-1.44,1.41-2,2.49-2,3.89,0,2.38,1.83,3.31,4.64,3.31C320.53,244,322.66,242.31,322.66,240.25Zm-6.34-20.84c3.67,0,6.41,2,6.41,5.91s-2.81,5.9-6.45,5.9-6.44-1.94-6.44-5.9S312.65,219.41,316.32,219.41Zm-3.67,5.94c0,2.63,1.29,4.43,3.53,4.43s3.74-1.91,3.74-4.57-1.3-4.36-3.56-4.36S312.65,222.72,312.65,225.35Zm12.24-5.94.54.36V222h-5.29v-1Z" transform="translate(-165.66 -210.31)"/><path d="M332.3,210.31l.51.28-.15,5.12v13.67q0,3.78.11,7.56h-3.09q.1-3.78.11-7.56V213.55l-3-.36v-1.26Zm3.35,25.37v1.26H326.8v-1.26l4.06-.72h.72Z" transform="translate(-165.66 -210.31)"/><path d="M353.07,226.29a7,7,0,0,1-.25,2H339.54v-1.51h8.57c1.72,0,2.12-.83,2.12-1.83a4,4,0,0,0-4-3.93c-2.31,0-5,1.95-5,7.09,0,4.58,2.3,7,5.9,7a6.23,6.23,0,0,0,5-2.55l.83.65a7.32,7.32,0,0,1-6.88,4.17c-4.82,0-8-3.35-8-8.82s3.74-9.18,8.21-9.18C350.12,219.41,353.07,221.93,353.07,226.29Z" transform="translate(-165.66 -210.31)"/><path d="M359.12,229.38v-1.69c0-2,0-3.09-.1-4.53l-2.88-.33v-1.26l4.89-2.16.54.36.43,4.5v5.11c0,2.24,0,5.94.11,7.56H359C359.09,235.32,359.12,231.62,359.12,229.38Zm-2.7,6.3,4-.72h.72l4,.72v1.26h-8.64Zm4.14-11.16h2.06l-.9.26c1.15-3.35,3.34-5.37,5.47-5.37a3.09,3.09,0,0,1,2.55,1.23c0,1.69-.65,2.62-2.09,2.62a3.25,3.25,0,0,1-2.15-.86l-1-.83,1.77-.36c-2.24,1.15-3.53,2.95-4.36,5.73h-1.37Z" transform="translate(-165.66 -210.31)"/></svg>